<svg width="100%" height="100%" id="svg" viewBox="0 0 1440 390" xmlns="http://www.w3.org/2000/svg" class="transition duration-300 ease-in-out delay-150"><defs><linearGradient id="gradient" x1="84%" y1="87%" x2="16%" y2="13%"><stop offset="5%" stop-color="#e8e8e8"></stop><stop offset="95%" stop-color="#1362fc"></stop></linearGradient></defs><path d="M 0,400 C 0,400 0,133 0,133 C 115.72248803827753,127.36363636363636 231.44497607655506,121.72727272727272 316,135 C 400.55502392344494,148.27272727272728 453.9425837320574,180.45454545454544 549,168 C 644.0574162679426,155.54545454545456 780.7846889952153,98.45454545454547 893,85 C 1005.2153110047847,71.54545454545453 1092.9186602870814,101.72727272727272 1180,117 C 1267.0813397129186,132.27272727272728 1353.5406698564593,132.63636363636363 1440,133 C 1440,133 1440,400 1440,400 Z" stroke="none" stroke-width="0" fill="url(#gradient)" fill-opacity="0.53" class="transition-all duration-300 ease-in-out delay-150 path-0"></path><defs><linearGradient id="gradient" x1="84%" y1="87%" x2="16%" y2="13%"><stop offset="5%" stop-color="#e8e8e8"></stop><stop offset="95%" stop-color="#1362fc"></stop></linearGradient></defs><path d="M 0,400 C 0,400 0,266 0,266 C 85.83732057416267,276.14354066985646 171.67464114832535,286.2870813397129 264,285 C 356.32535885167465,283.7129186602871 455.1387559808612,270.9952153110048 547,276 C 638.8612440191388,281.0047846889952 723.7703349282297,303.73205741626793 829,312 C 934.2296650717703,320.26794258373207 1059.77990430622,314.07655502392345 1165,304 C 1270.22009569378,293.92344497607655 1355.11004784689,279.9617224880383 1440,266 C 1440,266 1440,400 1440,400 Z" stroke="none" stroke-width="0" fill="url(#gradient)" fill-opacity="1" class="transition-all duration-300 ease-in-out delay-150 path-1"></path></svg>